<svg xmlns="http://www.w3.org/2000/svg" xmlns:xlink="http://www.w3.org/1999/xlink" width="2000" zoomAndPan="magnify" viewBox="0 -371.04 1500 1500" height="2000" preserveAspectRatio="xMidYMid meet" version="1.0"><defs><filter x="0%" y="0%" width="100%" height="100%" id="ba41723c34"><feColorMatrix values="0 0 0 0 1 0 0 0 0 1 0 0 0 0 1 0 0 0 1 0" color-interpolation-filters="sRGB"/></filter><g/><clipPath id="94679b7509"><path d="M 0 -371.04 L 1500 -371.04 L 1500 1129 L 0 1129 Z M 0 -371.04 " clip-rule="nonzero"/></clipPath><clipPath id="be507e049f"><path d="M 425 0.15625 L 435 0.15625 L 435 685.042969 L 425 685.042969 Z M 425 0.15625 " clip-rule="nonzero"/></clipPath><mask id="b01d13824c"><g filter="url(#ba41723c34)"><rect x="-461" width="2160" fill="#000000" y="-198.7424" height="1091.4048" fill-opacity="0.8"/></g></mask><clipPath id="ac4e546040"><path d="M 0.339844 0.15625 L 9.699219 0.15625 L 9.699219 685 L 0.339844 685 Z M 0.339844 0.15625 " clip-rule="nonzero"/></clipPath><clipPath id="0d2730fdc0"><rect x="0" width="10" y="0" height="686"/></clipPath><clipPath id="d1005ecc62"><rect x="0" width="1235" y="0" height="686"/></clipPath></defs><g clip-path="url(#94679b7509)"><path fill="#ffffff" d="M 0 -371.04 L 1500 -371.04 L 1500 1129 L 0 1129 Z M 0 -371.04 " fill-opacity="1" fill-rule="nonzero"/><path fill="#00263e" d="M 0 -371.04 L 1500 -371.04 L 1500 1129 L 0 1129 Z M 0 -371.04 " fill-opacity="1" fill-rule="nonzero"/></g><g transform="matrix(1, 0, 0, 1, 131, 32)"><g clip-path="url(#d1005ecc62)"><g fill="#9eb6c4" fill-opacity="1"><g transform="translate(517.906532, 538.084919)"><g><path d="M 108.53125 4.0625 C 77.082031 4.0625 54.425781 -2.445312 40.5625 -15.46875 C 26.707031 -28.488281 19.269531 -50.039062 18.25 -80.125 C 17.914062 -89.925781 17.75 -98.800781 17.75 -106.75 C 17.75 -114.695312 17.914062 -124.925781 18.25 -137.4375 L 73.03125 -137.4375 L 73.03125 -73.03125 C 73.03125 -51.726562 84.351562 -41.078125 107 -41.078125 C 129.320312 -41.078125 140.648438 -51.726562 140.984375 -73.03125 C 141.328125 -85.539062 141.5 -98.640625 141.5 -112.328125 C 141.5 -126.023438 141.328125 -138.789062 140.984375 -150.625 C 140.304688 -162.113281 137.429688 -171.320312 132.359375 -178.25 C 127.285156 -185.1875 117.484375 -188.488281 102.953125 -188.15625 L 64.90625 -187.640625 L 62.890625 -234.296875 L 131.859375 -357.03125 L 21.296875 -357.03125 L 21.296875 -405.71875 L 194.734375 -405.71875 L 194.234375 -359.0625 L 122.734375 -235.828125 C 147.410156 -233.796875 165.410156 -226.101562 176.734375 -212.75 C 188.066406 -199.394531 194.40625 -178.6875 195.75 -150.625 C 196.425781 -122.894531 196.425781 -99.394531 195.75 -80.125 C 194.40625 -50.039062 186.96875 -28.488281 173.4375 -15.46875 C 159.914062 -2.445312 138.28125 4.0625 108.53125 4.0625 Z M 108.53125 4.0625 "/></g></g></g><g fill="#9eb6c4" fill-opacity="1"><g transform="translate(754.741223, 538.084919)"><g><path d="M 110.046875 4.5625 C 79.617188 4.5625 57.8125 -1.941406 44.625 -14.953125 C 31.4375 -27.972656 24.675781 -49.53125 24.34375 -79.625 C 24 -111.0625 23.742188 -141.992188 23.578125 -172.421875 C 23.410156 -202.859375 23.410156 -231.257812 23.578125 -257.625 C 23.742188 -284 24 -306.820312 24.34375 -326.09375 C 25.351562 -354.832031 33.210938 -375.960938 47.921875 -389.484375 C 62.628906 -403.003906 83.171875 -409.765625 109.546875 -409.765625 C 165.328125 -409.765625 194.234375 -381.875 196.265625 -326.09375 C 196.597656 -320.007812 196.765625 -312.148438 196.765625 -302.515625 C 196.765625 -292.878906 196.597656 -284.675781 196.265625 -277.90625 L 141.5 -277.90625 C 142.164062 -287.375 142.5 -296.25 142.5 -304.53125 C 142.5 -312.820312 142.164062 -323.222656 141.5 -335.734375 C 141.15625 -344.859375 138.613281 -351.957031 133.875 -357.03125 C 129.144531 -362.101562 121.375 -364.640625 110.5625 -364.640625 C 90.269531 -364.640625 79.785156 -355.003906 79.109375 -335.734375 C 78.097656 -302.597656 77.59375 -265.40625 77.59375 -224.15625 L 88.25 -224.15625 C 91.96875 -231.257812 98.21875 -237.257812 107 -242.15625 C 115.789062 -247.0625 125.9375 -249.515625 137.4375 -249.515625 C 160.082031 -249.515625 175.882812 -243.765625 184.84375 -232.265625 C 193.8125 -220.773438 198.460938 -201.675781 198.796875 -174.96875 C 199.140625 -157.382812 199.3125 -140.898438 199.3125 -125.515625 C 199.3125 -110.128906 198.972656 -94.832031 198.296875 -79.625 C 196.941406 -49.53125 189.585938 -27.972656 176.234375 -14.953125 C 162.878906 -1.941406 140.816406 4.5625 110.046875 4.5625 Z M 110.5625 -40.578125 C 132.195312 -40.578125 143.179688 -50.378906 143.515625 -69.984375 C 144.191406 -89.253906 144.53125 -107.425781 144.53125 -124.5 C 144.53125 -141.570312 144.363281 -158.054688 144.03125 -173.953125 C 143.6875 -193.554688 133.375 -203.359375 113.09375 -203.359375 C 102.613281 -203.359375 94.160156 -200.90625 87.734375 -196 C 81.304688 -191.101562 77.925781 -184.09375 77.59375 -174.96875 C 77.925781 -158.738281 78.175781 -141.914062 78.34375 -124.5 C 78.519531 -107.09375 78.773438 -88.921875 79.109375 -69.984375 C 79.785156 -50.378906 90.269531 -40.578125 110.5625 -40.578125 Z M 110.5625 -40.578125 "/></g></g></g><g fill="#9eb6c4" fill-opacity="1"><g transform="translate(993.097352, 538.084919)"><g><path d="M 114.109375 4.0625 C 82.660156 4.0625 59.921875 -2.445312 45.890625 -15.46875 C 31.859375 -28.488281 24.503906 -50.039062 23.828125 -80.125 C 23.492188 -90.945312 23.328125 -100.753906 23.328125 -109.546875 C 23.328125 -118.335938 23.492188 -127.632812 23.828125 -137.4375 L 79.109375 -137.4375 C 78.429688 -127.632812 78.007812 -116.644531 77.84375 -104.46875 C 77.675781 -92.300781 77.929688 -81.820312 78.609375 -73.03125 C 79.285156 -62.207031 82.328125 -54.175781 87.734375 -48.9375 C 93.140625 -43.695312 101.421875 -41.078125 112.578125 -41.078125 C 123.742188 -41.078125 131.945312 -43.695312 137.1875 -48.9375 C 142.425781 -54.175781 145.382812 -62.207031 146.0625 -73.03125 C 147.40625 -91.28125 148.078125 -109.023438 148.078125 -126.265625 C 148.078125 -143.515625 147.570312 -160.757812 146.5625 -178 C 145.550781 -197.613281 135.238281 -207.421875 115.625 -207.421875 C 105.144531 -207.421875 96.863281 -204.800781 90.78125 -199.5625 C 84.695312 -194.320312 81.484375 -186.96875 81.140625 -177.5 L 28.90625 -177.5 L 28.90625 -405.71875 L 196.765625 -405.71875 L 196.765625 -357.03125 L 83.671875 -357.03125 L 83.671875 -228.21875 L 93.3125 -228.21875 C 97.03125 -235.3125 102.945312 -241.3125 111.0625 -246.21875 C 119.175781 -251.125 128.984375 -253.578125 140.484375 -253.578125 C 160.429688 -253.578125 175.304688 -247.066406 185.109375 -234.046875 C 194.910156 -221.023438 200.316406 -202.679688 201.328125 -179.015625 C 203.023438 -143.515625 202.859375 -110.550781 200.828125 -80.125 C 198.460938 -50.039062 190.851562 -28.488281 178 -15.46875 C 165.15625 -2.445312 143.859375 4.0625 114.109375 4.0625 Z M 114.109375 4.0625 "/></g></g></g><g clip-path="url(#be507e049f)"><g><g transform="matrix(1, 0, 0, 1, 425, -0.000000000000007105)"><g clip-path="url(#0d2730fdc0)"><g clip-path="url(#ac4e546040)"><path stroke-linecap="butt" transform="matrix(0, -0.760719, 0.760719, 0, 0.368071, 680.422633)" fill="none" stroke-linejoin="miter" d="M 0.000995968 6.001587 L 887.226731 6.001587 " stroke="#ffffff" stroke-width="30" stroke-opacity="1" stroke-miterlimit="4"/></g></g></g></g></g><g fill="#ffffff" fill-opacity="1"><g transform="translate(1.291937, 538.084919)"><g><path d="M 41.578125 0 L 41.578125 -353.484375 L 19.78125 -353.484375 L 18.25 -373.765625 L 52.75 -405.71875 L 96.359375 -405.71875 L 96.359375 0 Z M 41.578125 0 "/></g></g></g><g fill="#ffffff" fill-opacity="1"><g transform="translate(136.698509, 538.084919)"><g><path d="M 24.84375 0 C 24.507812 -11.5 24.253906 -20.710938 24.078125 -27.640625 C 23.910156 -34.566406 23.828125 -41.75 23.828125 -49.1875 C 23.828125 -56.625 24 -66.769531 24.34375 -79.625 C 25.019531 -110.050781 30.9375 -134.476562 42.09375 -152.90625 C 53.25 -171.332031 68.96875 -186.800781 89.25 -199.3125 L 117.15625 -217.5625 C 127.96875 -224.664062 134.894531 -232.945312 137.9375 -242.40625 C 140.976562 -251.875 142.671875 -261.003906 143.015625 -269.796875 C 144.023438 -291.773438 144.023438 -313.753906 143.015625 -335.734375 C 142.335938 -345.535156 139.378906 -352.800781 134.140625 -357.53125 C 128.898438 -362.269531 120.703125 -364.640625 109.546875 -364.640625 C 89.597656 -364.640625 79.453125 -355.003906 79.109375 -335.734375 C 78.429688 -322.878906 78.09375 -310.113281 78.09375 -297.4375 C 78.09375 -284.757812 78.429688 -272 79.109375 -259.15625 L 24.84375 -259.15625 C 24.507812 -270.644531 24.171875 -282.390625 23.828125 -294.390625 C 23.492188 -306.398438 23.492188 -316.96875 23.828125 -326.09375 C 25.179688 -356.1875 32.535156 -377.65625 45.890625 -390.5 C 59.242188 -403.34375 80.628906 -409.765625 110.046875 -409.765625 C 141.148438 -409.765625 163.207031 -403.34375 176.21875 -390.5 C 189.238281 -377.65625 196.425781 -356.1875 197.78125 -326.09375 C 198.125 -317.976562 198.296875 -308.59375 198.296875 -297.9375 C 198.296875 -287.289062 198.125 -277.910156 197.78125 -269.796875 C 197.101562 -245.453125 191.773438 -225.503906 181.796875 -209.953125 C 171.828125 -194.398438 157.039062 -180.539062 137.4375 -168.375 L 106 -149.09375 C 96.53125 -142.332031 89.765625 -132.273438 85.703125 -118.921875 C 81.648438 -105.566406 79.625 -92.46875 79.625 -79.625 L 79.625 -48.6875 L 194.234375 -48.6875 L 194.234375 0 Z M 24.84375 0 "/></g></g></g></g></g></svg>